<svg width="96" height="96" viewBox="0 0 96 96" fill="none" xmlns="http://www.w3.org/2000/svg">
  <defs>
    <linearGradient id="bg" x1="13" y1="9" x2="82" y2="88" gradientUnits="userSpaceOnUse">
      <stop stop-color="#ECFDF5"/>
      <stop offset="1" stop-color="#CCFBF1"/>
    </linearGradient>
    <linearGradient id="dial" x1="28" y1="24" x2="68" y2="72" gradientUnits="userSpaceOnUse">
      <stop stop-color="#10B981"/>
      <stop offset="1" stop-color="#065F46"/>
    </linearGradient>
  </defs>
  <rect x="10" y="10" width="76" height="76" rx="24" fill="url(#bg)"/>
  <circle cx="48" cy="48" r="27" fill="url(#dial)"/>
  <circle cx="48" cy="48" r="18" fill="#F0FDF4"/>
  <path d="M48 35V49L58 55" stroke="#064E3B" stroke-width="5" stroke-linecap="round" stroke-linejoin="round"/>
  <circle cx="48" cy="48" r="4" fill="#F59E0B"/>
  <path d="M48 20V14" stroke="#F59E0B" stroke-width="5" stroke-linecap="round"/>
  <path d="M48 82V76" stroke="#F59E0B" stroke-width="5" stroke-linecap="round"/>
  <path d="M14 48H20" stroke="#F59E0B" stroke-width="5" stroke-linecap="round"/>
  <path d="M76 48H82" stroke="#F59E0B" stroke-width="5" stroke-linecap="round"/>
  <path d="M35 74C35 64.6112 42.6112 57 52 57H61V66C61 75.3888 53.3888 83 44 83H35V74Z" fill="#FBBF24"/>
  <path d="M40 79C45 71 51 65 58 60" stroke="#92400E" stroke-width="4" stroke-linecap="round"/>
  <path d="M31 32C36 28 41 26 48 26" stroke="#A7F3D0" stroke-width="4" stroke-linecap="round"/>
  <path d="M66 43C69 48 69 54 67 59" stroke="#A7F3D0" stroke-width="4" stroke-linecap="round"/>
</svg>
