<svg width="96" height="96" viewBox="0 0 96 96" fill="none" xmlns="http://www.w3.org/2000/svg">
  <defs>
    <linearGradient id="bg" x1="17" y1="12" x2="80" y2="86" gradientUnits="userSpaceOnUse">
      <stop stop-color="#F0FDF4"/>
      <stop offset="1" stop-color="#BBF7D0"/>
    </linearGradient>
    <linearGradient id="field" x1="22" y1="53" x2="74" y2="78" gradientUnits="userSpaceOnUse">
      <stop stop-color="#047857"/>
      <stop offset="1" stop-color="#10B981"/>
    </linearGradient>
    <linearGradient id="gold" x1="35" y1="19" x2="63" y2="47" gradientUnits="userSpaceOnUse">
      <stop stop-color="#FDE68A"/>
      <stop offset="1" stop-color="#F59E0B"/>
    </linearGradient>
  </defs>
  <rect x="8" y="8" width="80" height="80" rx="28" fill="url(#bg)"/>
  <path d="M29 30L39 36L48 22L57 36L67 30L63 48H33L29 30Z" fill="url(#gold)"/>
  <circle cx="48" cy="40" r="5" fill="#FFFFFF"/>
  <path d="M25 55C33 47 63 47 71 55V64C61 56 35 56 25 64V55Z" fill="url(#field)"/>
  <path d="M26 69C37 61 59 61 70 69" stroke="#065F46" stroke-width="9" stroke-linecap="round"/>
  <path d="M35 63L30 70" stroke="#D1FAE5" stroke-width="3" stroke-linecap="round"/>
  <path d="M48 61V72" stroke="#D1FAE5" stroke-width="3" stroke-linecap="round"/>
  <path d="M61 63L66 70" stroke="#D1FAE5" stroke-width="3" stroke-linecap="round"/>
  <path d="M48 20V13" stroke="#FBBF24" stroke-width="5" stroke-linecap="round"/>
  <circle cx="20" cy="38" r="4" fill="#34D399"/>
  <circle cx="76" cy="38" r="4" fill="#34D399"/>
  <path d="M20 78H76" stroke="#FFFFFF" stroke-opacity="0.7" stroke-width="3" stroke-linecap="round"/>
</svg>
